<svg xmlns="http://www.w3.org/2000/svg" id="bg-globe" xmlns:xlink="http://www.w3.org/1999/xlink" version="1.1" xml:space="preserve" width="47" height="58">

<style type="text/css">
	#bg-globe .st0{fill:#c17577;} /* brand is 991B1E */
	#bg-globe .st1{clip-path:url(#SVGID_2_);}
	#bg-globe .st2{clip-path:url(#SVGID_4_);fill: rgba(0,0,0,0.19);} /*#4B1212*/
	#bg-globe .st3{fill: black;}
</style>
<defs>
  <mask id="person"  >
    <rect width="100%" height="100%" fill="white" id="svg_1"/>
    <g id="svg_2" transform="translate(-69.70001220703125,-81)">
      <path class="st3" d="M93.5,111.1c-1.7,0-3-1.4-3-3s1.4-3,3-3c1.7,0,3,1.4,3,3S95.2,111.1,93.5,111.1z M93.5,106.4         c-0.9,0-1.6,0.7-1.6,1.6s0.7,1.6,1.6,1.6c0.9,0,1.6-0.7,1.6-1.6S94.4,106.4,93.5,106.4z" id="svg_3"/>
      <g id="svg_4">
        <path class="st3" d="M93.5,102.8c-0.4,0-0.7-0.3-0.7-0.7v-2.7c0-0.4,0.3-0.7,0.7-0.7s0.7,0.3,0.7,0.7v2.7           C94.2,102.5,93.9,102.8,93.5,102.8z" id="svg_5"/>
        <path class="st3" d="M97.9,104.5c-0.2,0-0.4-0.1-0.5-0.2c-0.3-0.3-0.3-0.7,0-1l1.9-1.9c0.3-0.3,0.7-0.3,1,0c0.3,0.3,0.3,0.7,0,1           l-1.9,1.9C98.2,104.4,98.1,104.5,97.9,104.5z" id="svg_6"/>
        <path class="st3" d="M89.1,104.5c-0.2,0-0.4-0.1-0.5-0.2l-1.9-1.9c-0.3-0.3-0.3-0.7,0-1c0.3-0.3,0.7-0.3,1,0l1.9,1.9           c0.3,0.3,0.3,0.7,0,1C89.5,104.4,89.3,104.5,89.1,104.5z" id="svg_7"/>
      </g>
    </g>
    <path transform="translate(-69.70001220703125,-81)" class="st3" d="M92.3,139c0-0.1,0-0.1,0-0.2v-22.7c0-0.7,0.6-1.2,1.2-1.2c0.7,0,1.2,0.6,1.2,1.2v22.7c0,0.1,0,0.1,0,0.2h1.4   c0-0.1,0-0.1,0-0.2v-22.7c0-1.4-1.2-2.6-2.6-2.6c-1.4,0-2.6,1.2-2.6,2.6v22.7c0,0.1,0,0.1,0,0.2H92.3z" id="svg_8"/>

  </mask>
</defs>

<g class="currentLayer">
  <g mask="url(#person)" id="svg_26" class="">
	<path class="st0" d="M40.49998779296875,10.900000000000006 c-0.1,-0.1 -0.1,-0.2 -0.2,-0.30000000000000004 c-6.8,-10.4 -16.1,-9.7 -16.7,-9.7 c-0.6000000000000001,-0.1 -9.9,-0.7000000000000001 -16.7,9.7 c-0.1,0.1 -0.1,0.2 -0.2,0.30000000000000004 c-6.7,12.8 2.2,21.8 3.2,22.8 c0.1,0.1 0.1,0.1 0.2,0.2 c3.1,3.5 4.1,9.2 4.4,12.9 c0.1,1.5 1.2,2.8 2.6,3.3 v7.1 c0,0.5 0.4,0.9 0.9,0.9 H29.29998779296875 c0.5,0 0.9,-0.4 0.9,-0.9 v-7.1 c1.4,-0.4 2.5,-1.7000000000000002 2.6,-3.3 c0.30000000000000004,-3.6 1.2,-9.3 4.4,-12.9 c0.1,-0.1 0.1,-0.1 0.2,-0.2 C38.29998779296875,32.7 47.199987792968756,23.799999999999997 40.49998779296875,10.900000000000006 z" id="svg_27"/>
	<g id="svg_28">
		<defs transform="translate(-69.70001220703125,-81) ">
			<path id="SVGID_1_" d="M110.2,91.9c-0.1-0.1-0.1-0.2-0.2-0.3c-6.8-10.4-16.1-9.7-16.7-9.7c-0.6-0.1-9.9-0.7-16.7,9.7     c-0.1,0.1-0.1,0.2-0.2,0.3c-6.7,12.8,2.2,21.8,3.2,22.8c0.1,0.1,0.1,0.1,0.2,0.2c3.1,3.5,4.1,9.2,4.4,12.9     c0.1,1.5,1.2,2.8,2.6,3.3v7.1c0,0.5,0.4,0.9,0.9,0.9H99c0.5,0,0.9-0.4,0.9-0.9v-7.1c1.4-0.4,2.5-1.7,2.6-3.3     c0.3-3.6,1.2-9.3,4.4-12.9c0.1-0.1,0.1-0.1,0.2-0.2C108,113.7,116.9,104.8,110.2,91.9z"/>
		</defs>
		<clipPath id="SVGID_2_" transform="translate(-69.70001220703125,-81) ">
			<use xlink:href="#SVGID_1_" style="overflow:visible;" id="svg_29"/>
		</clipPath>
		<g class="st1" id="svg_30">
			<circle class="st0" cx="23.499984741210938" cy="20.099998474121094" r="20.100000381469727" id="svg_31"/>
			<g id="svg_32">
				<defs transform="translate(-69.70001220703125,-81) ">
					<circle id="SVGID_3_" cx="93.19999694824219" cy="101.0999984741211" r="20.100000381469727"/>
				</defs>
				<clipPath id="SVGID_4_" transform="translate(-69.70001220703125,-81) ">
					<use xlink:href="#SVGID_3_" style="overflow:visible;" id="svg_33"/>
				</clipPath>
				<polygon class="st2" points="5.79998779296875,10.599998474121094 6.399986267089844,10.900001525878906 6.79998779296875,11.099998474121094 7.5999908447265625,11 7.4999847412109375,11.5 6.5999908447265625,12.099998474121094 5.9999847412109375,12.5 5.9999847412109375,12.599998474121094 6.79998779296875,12.199996948242188 7.399986267089844,11.900001525878906 8.099990844726562,11.300003051757812 8.499984741210938,11 8.79998779296875,10.599998474121094 9.199989318847656,10.199996948242188 9.599990844726562,9.900001525878906 10.099990844726562,9.800003051757812 10.79998779296875,10.099998474121094 11.29998779296875,10.099998474121094 12.099990844726562,10.099998474121094 12.699989318847656,10.599998474121094 13.399986267089844,11.300003051757812 14.099990844726562,11.800003051757812 14.199989318847656,12.300003051757812 14.399986267089844,12.5 14.899986267089844,13.300003051757812 14.899986267089844,13.699996948242188 14.899986267089844,14.300003051757812 14.899986267089844,15.099998474121094 14.79998779296875,15.900001525878906 14.999984741210938,16.699996948242188 15.399986267089844,17.400001525878906 15.699989318847656,17.800003051757812 16.199989318847656,18 16.599990844726562,18.699996948242188 16.899986267089844,19.300003051757812 17.199989318847656,19.900001525878906 17.29998779296875,20.300003051757812 17.699989318847656,20.5 17.699989318847656,20.300003051757812 17.399986267089844,19.900001525878906 17.199989318847656,19.199996948242188 16.79998779296875,18.599998474121094 16.79998779296875,18.199996948242188 16.999984741210938,18.199996948242188 17.399986267089844,18.800003051757812 17.699989318847656,19.300003051757812 18.099990844726562,19.900001525878906 18.599990844726562,20.300003051757812 18.699989318847656,20.800003051757812 18.699989318847656,21.199996948242188 18.699989318847656,21.5 18.999984741210938,21.599998474121094 19.399986267089844,21.900001525878906 19.79998779296875,22 20.499984741210938,22.300003051757812 20.899986267089844,22.300003051757812 21.29998779296875,22.300003051757812 21.699989318847656,22.300003051757812 21.899986267089844,22.5 22.499984741210938,22.800003051757812 22.999984741210938,22.800003051757812 23.399986267089844,23.199996948242188 23.499984741210938,23.599998474121094 23.599990844726562,23.699996948242188 23.899986267089844,23.900001525878906 24.29998779296875,24.099998474121094 24.599990844726562,24.099998474121094 24.79998779296875,24 25.199989318847656,24 25.399986267089844,24.199996948242188 25.499984741210938,24.800003051757812 25.499984741210938,25.300003051757812 25.099990844726562,25.699996948242188 24.699989318847656,26.199996948242188 24.599990844726562,26.5 24.599990844726562,26.800003051757812 24.599990844726562,27 24.699989318847656,27 24.399986267089844,27.300003051757812 24.399986267089844,27.699996948242188 24.599990844726562,28 24.79998779296875,28.099998474121094 25.099990844726562,28.5 25.199989318847656,28.800003051757812 25.399986267089844,29 25.499984741210938,29.300003051757812 25.599990844726562,29.699996948242188 25.599990844726562,29.900001525878906 25.999984741210938,30.199996948242188 26.399986267089844,30.5 26.79998779296875,30.599998474121094 27.099990844726562,30.900001525878906 27.099990844726562,31.099998474121094 27.099990844726562,31.5 26.999984741210938,32.099998474121094 26.999984741210938,32.5 26.999984741210938,32.69999694824219 26.79998779296875,33.30000305175781 26.79998779296875,33.69999694824219 26.699989318847656,34.099998474121094 26.699989318847656,34.599998474121094 26.599990844726562,35 26.399986267089844,35.19999694824219 26.399986267089844,35.80000305175781 26.29998779296875,36.30000305175781 26.29998779296875,36.80000305175781 26.29998779296875,37.599998474121094 26.29998779296875,38 26.199989318847656,38.400001525878906 26.199989318847656,39.099998474121094 26.199989318847656,39.599998474121094 26.199989318847656,40 26.199989318847656,40.30000305175781 26.399986267089844,40.400001525878906 27.399986267089844,40.400001525878906 27.499984741210938,40.099998474121094 27.499984741210938,39.69999694824219 27.699989318847656,39.30000305175781 27.999984741210938,39.099998474121094 27.899986267089844,38.80000305175781 27.599990844726562,38.599998474121094 27.699989318847656,38.400001525878906 27.899986267089844,38.19999694824219 28.099990844726562,37.900001525878906 28.29998779296875,37.599998474121094 28.29998779296875,37.400001525878906 28.099990844726562,37.099998474121094 28.29998779296875,37 28.399986267089844,37 28.699989318847656,37 28.79998779296875,36.69999694824219 28.79998779296875,36.400001525878906 29.29998779296875,36.30000305175781 29.899986267089844,36.19999694824219 29.999984741210938,36 30.099990844726562,35.80000305175781 29.999984741210938,35.5 29.899986267089844,35.19999694824219 29.899986267089844,35 30.099990844726562,35.099998474121094 30.399986267089844,35.400001525878906 30.79998779296875,35.099998474121094 31.199989318847656,34.80000305175781 31.499984741210938,34.400001525878906 31.899986267089844,34.19999694824219 31.999984741210938,33.900001525878906 32.29998779296875,33.69999694824219 32.399986267089844,33.5 32.399986267089844,33.099998474121094 32.49998474121094,32.69999694824219 32.79998779296875,32.599998474121094 32.99998474121094,32.5 33.399986267089844,32.30000305175781 33.79998779296875,32.19999694824219 34.199989318847656,32.19999694824219 34.49998474121094,32.099998474121094 34.49998474121094,31.900001525878906 34.59999084472656,31.5 34.99998474121094,31.300003051757812 35.199989318847656,30.900001525878906 35.29998779296875,30.5 35.399986267089844,30.199996948242188 35.399986267089844,29.800003051757812 35.59999084472656,29.5 35.79998779296875,29.400001525878906 36.09999084472656,29.099998474121094 36.49998474121094,28.900001525878906 36.899986267089844,28.5 36.899986267089844,28.099998474121094 36.899986267089844,27.699996948242188 36.49998474121094,27.599998474121094 36.199989318847656,27.300003051757812 35.79998779296875,27 35.29998779296875,26.900001525878906 34.899986267089844,26.800003051757812 34.49998474121094,26.900001525878906 34.09999084472656,26.800003051757812 34.09999084472656,26.5 33.59999084472656,26.199996948242188 33.29998779296875,26.199996948242188 32.899986267089844,26 32.59999084472656,25.800003051757812 32.59999084472656,25.400001525878906 32.49998474121094,25 32.09999084472656,24.599998474121094 31.699989318847656,24.5 31.099990844726562,24.400001525878906 30.699989318847656,24.400001525878906 30.29998779296875,24 29.899986267089844,23.699996948242188 29.499984741210938,23.5 29.099990844726562,23.300003051757812 28.699989318847656,23.300003051757812 28.099990844726562,23.199996948242188 27.499984741210938,23.199996948242188 27.099990844726562,23.099998474121094 26.599990844726562,23.300003051757812 26.199989318847656,23.599998474121094 25.899986267089844,24 25.599990844726562,24 25.399986267089844,23.699996948242188 25.099990844726562,23.599998474121094 24.79998779296875,23.699996948242188 24.599990844726562,23.900001525878906 24.29998779296875,23.699996948242188 23.999984741210938,23.5 23.999984741210938,23.099998474121094 23.999984741210938,22.800003051757812 24.199989318847656,22.5 24.199989318847656,22.300003051757812 23.899986267089844,22.099998474121094 23.499984741210938,22 23.199989318847656,22.099998474121094 22.79998779296875,22.099998474121094 22.999984741210938,21.900001525878906 22.999984741210938,21.599998474121094 23.199989318847656,21.300003051757812 23.399986267089844,20.900001525878906 23.399986267089844,20.5 23.099990844726562,20.5 22.79998779296875,20.699996948242188 22.599990844726562,20.800003051757812 22.499984741210938,21.099998474121094 22.499984741210938,21.300003051757812 22.199989318847656,21.5 21.899986267089844,21.5 21.79998779296875,21.599998474121094 21.399986267089844,21.599998474121094 21.29998779296875,21.5 20.999984741210938,21.300003051757812 20.899986267089844,21.099998474121094 20.699989318847656,20.900001525878906 20.699989318847656,20.5 20.699989318847656,20.300003051757812 20.699989318847656,20 20.899986267089844,19.699996948242188 20.999984741210938,19.599998474121094 20.899986267089844,19.199996948242188 20.899986267089844,19.099998474121094 21.099990844726562,18.800003051757812 21.399986267089844,18.699996948242188 21.699989318847656,18.400001525878906 22.099990844726562,18.400001525878906 22.29998779296875,18.400001525878906 22.699989318847656,18.599998474121094 22.999984741210938,18.400001525878906 23.199989318847656,18.199996948242188 23.499984741210938,18.199996948242188 23.899986267089844,18.300003051757812 24.29998779296875,18.300003051757812 24.399986267089844,18.300003051757812 24.599990844726562,18.699996948242188 24.699989318847656,19 24.699989318847656,19.099998474121094 24.79998779296875,19.300003051757812 25.099990844726562,19.599998474121094 25.199989318847656,19.300003051757812 25.199989318847656,19 25.099990844726562,18.699996948242188 25.099990844726562,18.300003051757812 24.999984741210938,18 25.099990844726562,17.800003051757812 25.399986267089844,17.5 25.79998779296875,17.199996948242188 25.999984741210938,17.099998474121094 26.199989318847656,16.800003051757812 26.29998779296875,16.400001525878906 26.29998779296875,16 26.29998779296875,15.599998474121094 26.599990844726562,15.5 26.79998779296875,15.5 26.999984741210938,15.400001525878906 27.099990844726562,15.099998474121094 27.599990844726562,14.800003051757812 27.899986267089844,14.699996948242188 28.099990844726562,14.300003051757812 28.399986267089844,14.300003051757812 28.79998779296875,14.099998474121094 29.099990844726562,13.900001525878906 29.29998779296875,13.900001525878906 29.29998779296875,13.699996948242188 29.599990844726562,13.099998474121094 29.599990844726562,12.599998474121094 29.29998779296875,12.599998474121094 28.899986267089844,12.599998474121094 28.499984741210938,12.900001525878906 28.29998779296875,13.099998474121094 27.999984741210938,13.099998474121094 28.29998779296875,13 28.399986267089844,12.699996948242188 28.699989318847656,12.599998474121094 28.79998779296875,12.5 29.199989318847656,12.300003051757812 29.29998779296875,12.300003051757812 29.899986267089844,12.5 30.29998779296875,12.300003051757812 30.499984741210938,12.300003051757812 31.099990844726562,12.199996948242188 31.499984741210938,12.099998474121094 31.699989318847656,11.800003051757812 31.599990844726562,11.5 31.29998779296875,11.300003051757812 30.899986267089844,11.099998474121094 30.499984741210938,10.699996948242188 30.29998779296875,10.5 30.099990844726562,10.199996948242188 29.999984741210938,9.800003051757812 29.699989318847656,9.5 29.599990844726562,9.400001525878906 29.499984741210938,9.099998474121094 29.29998779296875,9.300003051757812 29.199989318847656,9.5 29.099990844726562,9.699996948242188 28.699989318847656,9.699996948242188 28.399986267089844,9.400001525878906 28.29998779296875,9.099998474121094 28.29998779296875,9 27.999984741210938,8.800003051757812 27.699989318847656,8.5 27.399986267089844,8.400001525878906 27.199989318847656,8.400001525878906 26.999984741210938,8.400001525878906 26.699989318847656,8.400001525878906 26.399986267089844,8.400001525878906 26.399986267089844,8.5 26.29998779296875,8.800003051757812 26.399986267089844,9 26.399986267089844,9.099998474121094 26.29998779296875,9.300003051757812 26.199989318847656,9.400001525878906 26.29998779296875,9.5 26.399986267089844,9.699996948242188 26.399986267089844,9.900001525878906 26.599990844726562,10.099998474121094 26.599990844726562,10.300003051757812 26.599990844726562,10.5 26.29998779296875,10.599998474121094 26.199989318847656,10.699996948242188 25.899986267089844,10.900001525878906 25.899986267089844,11.099998474121094 25.999984741210938,11.300003051757812 25.999984741210938,11.699996948242188 25.999984741210938,11.800003051757812 25.79998779296875,11.900001525878906 25.499984741210938,11.800003051757812 25.199989318847656,11.5 25.199989318847656,11.099998474121094 25.199989318847656,10.900001525878906 24.999984741210938,10.699996948242188 24.399986267089844,10.599998474121094 24.199989318847656,10.5 23.899986267089844,10.199996948242188 23.79998779296875,10.199996948242188 23.399986267089844,9.900001525878906 22.999984741210938,9.900001525878906 22.79998779296875,9.800003051757812 22.79998779296875,9.5 22.599990844726562,9.400001525878906 22.29998779296875,9.400001525878906 22.499984741210938,9 22.699989318847656,8.800003051757812 22.999984741210938,8.5 23.199989318847656,8.199996948242188 23.499984741210938,8.199996948242188 23.499984741210938,8 23.599990844726562,7.6999969482421875 23.79998779296875,7.6999969482421875 23.999984741210938,7.6999969482421875 24.29998779296875,7.3000030517578125 24.699989318847656,7.1999969482421875 25.099990844726562,7 25.399986267089844,6.900001525878906 25.599990844726562,6.8000030517578125 25.79998779296875,6.5 25.499984741210938,6.400001525878906 25.499984741210938,6.099998474121094 25.499984741210938,5.8000030517578125 25.399986267089844,5.6999969482421875 25.099990844726562,5.599998474121094 24.79998779296875,5.599998474121094 24.79998779296875,5.8000030517578125 24.79998779296875,6.099998474121094 24.699989318847656,6.1999969482421875 24.29998779296875,6.5 23.999984741210938,6.400001525878906 24.199989318847656,6 24.199989318847656,5.6999969482421875 23.899986267089844,5.6999969482421875 23.79998779296875,6 23.79998779296875,6.099998474121094 23.599990844726562,5.8000030517578125 23.399986267089844,5.599998474121094 23.199989318847656,5.599998474121094 23.399986267089844,5.3000030517578125 23.199989318847656,5 22.79998779296875,4.900001525878906 22.699989318847656,4.599998474121094 22.79998779296875,4.599998474121094 22.79998779296875,4.5 22.999984741210938,4.1999969482421875 23.399986267089844,4.1999969482421875 23.499984741210938,4.099998474121094 23.399986267089844,3.9000015258789062 23.099990844726562,3.9000015258789062 22.79998779296875,3.6999969482421875 22.599990844726562,3.9000015258789062 22.599990844726562,4 22.599990844726562,4.400001525878906 22.599990844726562,4.599998474121094 22.599990844726562,4.8000030517578125 22.499984741210938,5 22.29998779296875,5.1999969482421875 22.499984741210938,5.400001525878906 22.599990844726562,5.599998474121094 22.699989318847656,5.599998474121094 22.699989318847656,5.8000030517578125 22.699989318847656,6.099998474121094 22.499984741210938,6.1999969482421875 22.499984741210938,6.400001525878906 22.499984741210938,6.599998474121094 22.199989318847656,6.5 22.199989318847656,6.1999969482421875 22.099990844726562,6.099998474121094 21.79998779296875,6.099998474121094 21.79998779296875,6.1999969482421875 21.499984741210938,6.400001525878906 21.099990844726562,6.1999969482421875 20.999984741210938,6.400001525878906 20.599990844726562,6.1999969482421875 20.29998779296875,6.099998474121094 20.199989318847656,6 19.899986267089844,6 19.499984741210938,6.099998474121094 19.499984741210938,6.1999969482421875 19.899986267089844,6.1999969482421875 19.699989318847656,6.400001525878906 19.499984741210938,6.599998474121094 19.499984741210938,6.8000030517578125 19.399986267089844,6.5 19.29998779296875,6.5 18.999984741210938,6.400001525878906 18.899986267089844,6.400001525878906 18.199989318847656,6.599998474121094 18.29998779296875,6.1999969482421875 18.099990844726562,6.099998474121094 17.79998779296875,6.099998474121094 17.599990844726562,6 17.199989318847656,5.8000030517578125 16.599990844726562,5.8000030517578125 16.499984741210938,6 15.999984741210938,5.8000030517578125 15.79998779296875,5.599998474121094 15.399986267089844,5.599998474121094 15.399986267089844,5.6999969482421875 14.999984741210938,6.099998474121094 14.599990844726562,6.1999969482421875 14.199989318847656,6.5 13.699989318847656,6.5 13.399986267089844,6.400001525878906 12.999984741210938,6.1999969482421875 12.699989318847656,6.1999969482421875 12.399986267089844,6.1999969482421875 11.899986267089844,6.400001525878906 11.29998779296875,6.1999969482421875 10.899986267089844,6.400001525878906 10.499984741210938,6.5 9.899986267089844,6.5 9.29998779296875,6.599998474121094 8.499984741210938,7 7.9999847412109375,7.400001525878906 7.399986267089844,7.6999969482421875 6.29998779296875,8.099998474121094 5.4999847412109375,9.699996948242188 " id="svg_34"/>
				<polygon class="st2" points="33.59999084472656,2.4000015258789062 32.899986267089844,2.6999969482421875 32.399986267089844,2.4000015258789062 31.999984741210938,2.3000030517578125 32.29998779296875,2.6999969482421875 31.899986267089844,2.4000015258789062 31.499984741210938,2.4000015258789062 31.29998779296875,2 31.099990844726562,2 30.499984741210938,2 30.099990844726562,1.9000015258789062 29.899986267089844,1.9000015258789062 29.599990844726562,1.9000015258789062 29.599990844726562,2 29.099990844726562,2 28.699989318847656,1.9000015258789062 28.399986267089844,2 28.499984741210938,2.3000030517578125 28.899986267089844,2.3000030517578125 29.199989318847656,2.4000015258789062 29.199989318847656,2.5 28.899986267089844,2.6999969482421875 28.699989318847656,2.6999969482421875 28.099990844726562,2.6999969482421875 27.599990844726562,2.5 27.499984741210938,2.5 27.599990844726562,2.8000030517578125 27.999984741210938,3.0999984741210938 28.399986267089844,3.0999984741210938 28.899986267089844,3.0999984741210938 28.899986267089844,3.3000030517578125 28.499984741210938,3.1999969482421875 28.29998779296875,3.1999969482421875 27.999984741210938,3.1999969482421875 27.599990844726562,3.0999984741210938 27.699989318847656,3.1999969482421875 28.099990844726562,3.5999984741210938 28.499984741210938,3.6999969482421875 28.699989318847656,3.5999984741210938 29.099990844726562,3.5999984741210938 29.599990844726562,3.6999969482421875 29.999984741210938,3.6999969482421875 30.29998779296875,4 30.699989318847656,4.099998474121094 31.099990844726562,4.599998474121094 31.29998779296875,4.900001525878906 31.699989318847656,5.3000030517578125 31.499984741210938,5.599998474121094 31.499984741210938,5.8000030517578125 31.699989318847656,5.8000030517578125 31.999984741210938,5.6999969482421875 32.399986267089844,6 32.59999084472656,6.1999969482421875 32.49998474121094,6.1999969482421875 32.29998779296875,6.099998474121094 31.899986267089844,6.099998474121094 31.699989318847656,6.099998474121094 31.699989318847656,6.1999969482421875 31.599990844726562,6.5 31.699989318847656,6.8000030517578125 32.29998779296875,6.599998474121094 32.29998779296875,6.400001525878906 32.49998474121094,6.5 32.79998779296875,6.599998474121094 32.79998779296875,7.1999969482421875 32.49998474121094,7.1999969482421875 32.29998779296875,7.3000030517578125 32.29998779296875,7.6999969482421875 32.49998474121094,8.199996948242188 32.79998779296875,8.599998474121094 32.99998474121094,8.900001525878906 33.399986267089844,9.099998474121094 33.79998779296875,9.400001525878906 34.09999084472656,9.699996948242188 34.199989318847656,9.699996948242188 34.79998779296875,9.699996948242188 34.79998779296875,9.900001525878906 34.99998474121094,9.800003051757812 35.29998779296875,9.400001525878906 35.399986267089844,9.300003051757812 35.399986267089844,8.900001525878906 35.99998474121094,8.5 36.399986267089844,8.599998474121094 36.59999084472656,8.599998474121094 36.899986267089844,8.5 37.29998779296875,8.5 37.399986267089844,8.400001525878906 37.79998779296875,8.400001525878906 38.199989318847656,8.199996948242188 39.29998779296875,8.199996948242188 40.09999084472656,8.400001525878906 40.199989318847656,8.099998474121094 35.59999084472656,2 " id="svg_35"/>
			</g>
		</g>
	</g>

</g></g></svg>
